<svg width="528" height="528" viewBox="0 0 528 528" xmlns="http://www.w3.org/2000/svg" shape-rendering="crispEdges"><rect x="154" y="44" width="220" height="22" fill="#0a2a1e"/><rect x="110" y="66" width="44" height="22" fill="#0a2a1e"/><rect x="154" y="66" width="264" height="22" fill="#4ade80"/><rect x="418" y="66" width="44" height="22" fill="#0a2a1e"/><rect x="88" y="88" width="22" height="22" fill="#0a2a1e"/><rect x="110" y="88" width="352" height="22" fill="#4ade80"/><rect x="462" y="88" width="22" height="22" fill="#0a2a1e"/><rect x="66" y="110" width="22" height="22" fill="#0a2a1e"/><rect x="88" y="110" width="396" height="22" fill="#4ade80"/><rect x="484" y="110" width="22" height="22" fill="#0a2a1e"/><rect x="44" y="132" width="22" height="22" fill="#0a2a1e"/><rect x="66" y="132" width="440" height="22" fill="#4ade80"/><rect x="506" y="132" width="22" height="22" fill="#0a2a1e"/><rect x="44" y="154" width="22" height="22" fill="#0a2a1e"/><rect x="66" y="154" width="440" height="22" fill="#4ade80"/><rect x="506" y="154" width="22" height="22" fill="#0a2a1e"/><rect x="44" y="176" width="22" height="22" fill="#0a2a1e"/><rect x="66" y="176" width="44" height="22" fill="#4ade80"/><rect x="110" y="176" width="88" height="22" fill="#0a2a1e"/><rect x="198" y="176" width="176" height="22" fill="#4ade80"/><rect x="374" y="176" width="88" height="22" fill="#0a2a1e"/><rect x="462" y="176" width="44" height="22" fill="#4ade80"/><rect x="506" y="176" width="22" height="22" fill="#0a2a1e"/><rect x="44" y="198" width="22" height="22" fill="#0a2a1e"/><rect x="66" y="198" width="44" height="22" fill="#4ade80"/><rect x="110" y="198" width="132" height="22" fill="#0a2a1e"/><rect x="242" y="198" width="88" height="22" fill="#4ade80"/><rect x="330" y="198" width="132" height="22" fill="#0a2a1e"/><rect x="462" y="198" width="44" height="22" fill="#4ade80"/><rect x="506" y="198" width="22" height="22" fill="#0a2a1e"/><rect x="44" y="220" width="22" height="22" fill="#0a2a1e"/><rect x="66" y="220" width="44" height="22" fill="#4ade80"/><rect x="110" y="220" width="132" height="22" fill="#0a2a1e"/><rect x="242" y="220" width="88" height="22" fill="#4ade80"/><rect x="330" y="220" width="132" height="22" fill="#0a2a1e"/><rect x="462" y="220" width="44" height="22" fill="#4ade80"/><rect x="506" y="220" width="22" height="22" fill="#0a2a1e"/><rect x="44" y="242" width="22" height="22" fill="#0a2a1e"/><rect x="66" y="242" width="44" height="22" fill="#4ade80"/><rect x="110" y="242" width="88" height="22" fill="#0a2a1e"/><rect x="198" y="242" width="176" height="22" fill="#4ade80"/><rect x="374" y="242" width="88" height="22" fill="#0a2a1e"/><rect x="462" y="242" width="44" height="22" fill="#4ade80"/><rect x="506" y="242" width="22" height="22" fill="#0a2a1e"/><rect x="44" y="264" width="22" height="22" fill="#0a2a1e"/><rect x="66" y="264" width="440" height="22" fill="#4ade80"/><rect x="506" y="264" width="22" height="22" fill="#0a2a1e"/><rect x="44" y="286" width="22" height="22" fill="#0a2a1e"/><rect x="66" y="286" width="198" height="22" fill="#4ade80"/><rect x="264" y="286" width="44" height="22" fill="#0a2a1e"/><rect x="308" y="286" width="198" height="22" fill="#4ade80"/><rect x="506" y="286" width="22" height="22" fill="#0a2a1e"/><rect x="44" y="308" width="22" height="22" fill="#0a2a1e"/><rect x="66" y="308" width="176" height="22" fill="#4ade80"/><rect x="242" y="308" width="88" height="22" fill="#0a2a1e"/><rect x="330" y="308" width="176" height="22" fill="#4ade80"/><rect x="506" y="308" width="22" height="22" fill="#0a2a1e"/><rect x="44" y="330" width="22" height="22" fill="#0a2a1e"/><rect x="66" y="330" width="440" height="22" fill="#4ade80"/><rect x="506" y="330" width="22" height="22" fill="#0a2a1e"/><rect x="66" y="352" width="22" height="22" fill="#0a2a1e"/><rect x="88" y="352" width="396" height="22" fill="#4ade80"/><rect x="484" y="352" width="22" height="22" fill="#0a2a1e"/><rect x="66" y="374" width="22" height="22" fill="#0a2a1e"/><rect x="88" y="374" width="396" height="22" fill="#4ade80"/><rect x="484" y="374" width="22" height="22" fill="#0a2a1e"/><rect x="66" y="396" width="22" height="22" fill="#0a2a1e"/><rect x="88" y="396" width="22" height="22" fill="#4ade80"/><rect x="110" y="396" width="22" height="22" fill="#0a2a1e"/><rect x="132" y="396" width="22" height="22" fill="#4ade80"/><rect x="154" y="396" width="22" height="22" fill="#0a2a1e"/><rect x="176" y="396" width="22" height="22" fill="#4ade80"/><rect x="198" y="396" width="22" height="22" fill="#0a2a1e"/><rect x="220" y="396" width="22" height="22" fill="#4ade80"/><rect x="242" y="396" width="22" height="22" fill="#0a2a1e"/><rect x="264" y="396" width="22" height="22" fill="#4ade80"/><rect x="286" y="396" width="22" height="22" fill="#0a2a1e"/><rect x="308" y="396" width="22" height="22" fill="#4ade80"/><rect x="330" y="396" width="22" height="22" fill="#0a2a1e"/><rect x="352" y="396" width="22" height="22" fill="#4ade80"/><rect x="374" y="396" width="22" height="22" fill="#0a2a1e"/><rect x="396" y="396" width="22" height="22" fill="#4ade80"/><rect x="418" y="396" width="22" height="22" fill="#0a2a1e"/><rect x="440" y="396" width="44" height="22" fill="#4ade80"/><rect x="484" y="396" width="22" height="22" fill="#0a2a1e"/><rect x="66" y="418" width="22" height="22" fill="#0a2a1e"/><rect x="88" y="418" width="44" height="22" fill="#4ade80"/><rect x="132" y="418" width="22" height="22" fill="#0a2a1e"/><rect x="154" y="418" width="22" height="22" fill="#4ade80"/><rect x="176" y="418" width="22" height="22" fill="#0a2a1e"/><rect x="198" y="418" width="22" height="22" fill="#4ade80"/><rect x="220" y="418" width="22" height="22" fill="#0a2a1e"/><rect x="242" y="418" width="66" height="22" fill="#4ade80"/><rect x="308" y="418" width="22" height="22" fill="#0a2a1e"/><rect x="330" y="418" width="22" height="22" fill="#4ade80"/><rect x="352" y="418" width="22" height="22" fill="#0a2a1e"/><rect x="374" y="418" width="22" height="22" fill="#4ade80"/><rect x="396" y="418" width="22" height="22" fill="#0a2a1e"/><rect x="418" y="418" width="66" height="22" fill="#4ade80"/><rect x="484" y="418" width="22" height="22" fill="#0a2a1e"/><rect x="66" y="440" width="22" height="22" fill="#0a2a1e"/><rect x="88" y="440" width="396" height="22" fill="#4ade80"/><rect x="484" y="440" width="22" height="22" fill="#0a2a1e"/><rect x="88" y="462" width="396" height="22" fill="#0a2a1e"/></svg>
